<svg width="228" height="120" viewBox="0 0 228 120" fill="none" xmlns="http://www.w3.org/2000/svg">
<g clip-path="url(#clip0_909_264532)">
<path d="M228 0H0V120H228V0Z" fill="#D91C16"/>
<path fill-rule="evenodd" clip-rule="evenodd" d="M228 18.4617H0V9.23096H228V18.4617ZM0 27.6925H228V36.9233H0V27.6925ZM228 55.3848H0V46.154H228V55.3848ZM0 64.6156H228V73.8463H0V64.6156ZM228 92.3079H0V83.0771H228V92.3079ZM0 101.539H228V110.769H0V101.539Z" fill="white"/>
<path d="M91.2 0H0V64.6154H91.2V0Z" fill="#021455"/>
<path d="M8.42944 5.32036L7.60046 2.76904L6.77149 5.32036H4.08887L6.25915 6.89717L5.43018 9.44849L7.60046 7.87169L9.77075 9.44849L8.94177 6.89717L11.1121 5.32036H8.42944Z" fill="white"/>
<path d="M8.42944 18.2434L7.60046 15.6921L6.77149 18.2434H4.08887L6.25915 19.8202L5.43018 22.3716L7.60046 20.7948L9.77075 22.3716L8.94177 19.8202L11.1121 18.2434H8.42944Z" fill="white"/>
<path d="M7.60046 28.6152L8.42944 31.1665H11.1121L8.94177 32.7433L9.77075 35.2946L7.60046 33.7178L5.43018 35.2946L6.25915 32.7433L4.08887 31.1665H6.77149L7.60046 28.6152Z" fill="white"/>
<path d="M8.42944 44.0896L7.60046 41.5383L6.77149 44.0896H4.08887L6.25915 45.6664L5.43018 48.2177L7.60046 46.6409L9.77075 48.2177L8.94177 45.6664L11.1121 44.0896H8.42944Z" fill="white"/>
<path d="M7.60046 54.4614L8.42944 57.0127H11.1121L8.94177 58.5895L9.77075 61.1408L7.60046 59.564L5.43018 61.1408L6.25915 58.5895L4.08887 57.0127H6.77149L7.60046 54.4614Z" fill="white"/>
<path d="M16.0294 11.7819L15.2005 9.23058L14.3715 11.7819H11.6889L13.8592 13.3587L13.0302 15.91L15.2005 14.3332L17.3707 15.91L16.5418 13.3587L18.7121 11.7819H16.0294Z" fill="white"/>
<path d="M15.2005 22.1537L16.0294 24.705H18.7121L16.5418 26.2818L17.3707 28.8331L15.2005 27.2563L13.0302 28.8331L13.8592 26.2818L11.6889 24.705H14.3715L15.2005 22.1537Z" fill="white"/>
<path d="M16.0294 37.6281L15.2005 35.0767L14.3715 37.6281H11.6889L13.8592 39.2049L13.0302 41.7562L15.2005 40.1794L17.3707 41.7562L16.5418 39.2049L18.7121 37.6281H16.0294Z" fill="white"/>
<path d="M15.2005 47.9998L16.0294 50.5511H18.7121L16.5418 52.1279L17.3707 54.6793L15.2005 53.1025L13.0302 54.6793L13.8592 52.1279L11.6889 50.5511H14.3715L15.2005 47.9998Z" fill="white"/>
<path d="M23.6294 5.32036L22.8005 2.76904L21.9715 5.32036H19.2889L21.4592 6.89717L20.6302 9.44849L22.8005 7.87169L24.9707 9.44849L24.1418 6.89717L26.3121 5.32036H23.6294Z" fill="white"/>
<path d="M22.8005 15.6921L23.6294 18.2434H26.3121L24.1418 19.8202L24.9707 22.3716L22.8005 20.7948L20.6302 22.3716L21.4592 19.8202L19.2889 18.2434H21.9715L22.8005 15.6921Z" fill="white"/>
<path d="M23.6294 31.1665L22.8005 28.6152L21.9715 31.1665H19.2889L21.4592 32.7433L20.6302 35.2946L22.8005 33.7178L24.9707 35.2946L24.1418 32.7433L26.3121 31.1665H23.6294Z" fill="white"/>
<path d="M22.8005 41.5383L23.6294 44.0896H26.3121L24.1418 45.6664L24.9707 48.2177L22.8005 46.6409L20.6302 48.2177L21.4592 45.6664L19.2889 44.0896H21.9715L22.8005 41.5383Z" fill="white"/>
<path d="M23.6294 57.0127L22.8005 54.4614L21.9715 57.0127H19.2889L21.4592 58.5895L20.6302 61.1408L22.8005 59.564L24.9707 61.1408L24.1418 58.5895L26.3121 57.0127H23.6294Z" fill="white"/>
<path d="M30.4005 9.23058L31.2294 11.7819H33.9121L31.7418 13.3587L32.5707 15.91L30.4005 14.3332L28.2302 15.91L29.0592 13.3587L26.8889 11.7819H29.5715L30.4005 9.23058Z" fill="white"/>
<path d="M31.2294 24.705L30.4005 22.1537L29.5715 24.705H26.8889L29.0592 26.2818L28.2302 28.8331L30.4005 27.2563L32.5707 28.8331L31.7418 26.2818L33.9121 24.705H31.2294Z" fill="white"/>
<path d="M30.4005 35.0767L31.2294 37.6281H33.9121L31.7418 39.2049L32.5707 41.7562L30.4005 40.1794L28.2302 41.7562L29.0592 39.2049L26.8889 37.6281H29.5715L30.4005 35.0767Z" fill="white"/>
<path d="M31.2294 50.5511L30.4005 47.9998L29.5715 50.5511H26.8889L29.0592 52.1279L28.2302 54.6793L30.4005 53.1025L32.5707 54.6793L31.7418 52.1279L33.9121 50.5511H31.2294Z" fill="white"/>
<path d="M38.0005 2.76904L38.8295 5.32036H41.5121L39.3418 6.89717L40.1708 9.44849L38.0005 7.87169L35.8302 9.44849L36.6592 6.89717L34.4889 5.32036H37.1715L38.0005 2.76904Z" fill="white"/>
<path d="M38.8295 18.2434L38.0005 15.6921L37.1715 18.2434H34.4889L36.6592 19.8202L35.8302 22.3716L38.0005 20.7948L40.1708 22.3716L39.3418 19.8202L41.5121 18.2434H38.8295Z" fill="white"/>
<path d="M38.0005 28.6152L38.8295 31.1665H41.5121L39.3418 32.7433L40.1708 35.2946L38.0005 33.7178L35.8302 35.2946L36.6592 32.7433L34.4889 31.1665H37.1715L38.0005 28.6152Z" fill="white"/>
<path d="M38.8295 44.0896L38.0005 41.5383L37.1715 44.0896H34.4889L36.6592 45.6664L35.8302 48.2177L38.0005 46.6409L40.1708 48.2177L39.3418 45.6664L41.5121 44.0896H38.8295Z" fill="white"/>
<path d="M38.0005 54.4614L38.8295 57.0127H41.5121L39.3418 58.5895L40.1708 61.1408L38.0005 59.564L35.8302 61.1408L36.6592 58.5895L34.4889 57.0127H37.1715L38.0005 54.4614Z" fill="white"/>
<path d="M46.4295 11.7819L45.6005 9.23058L44.7715 11.7819H42.0889L44.2592 13.3587L43.4302 15.91L45.6005 14.3332L47.7708 15.91L46.9418 13.3587L49.1121 11.7819H46.4295Z" fill="white"/>
<path d="M45.6005 22.1537L46.4295 24.705H49.1121L46.9418 26.2818L47.7708 28.8331L45.6005 27.2563L43.4302 28.8331L44.2592 26.2818L42.0889 24.705H44.7715L45.6005 22.1537Z" fill="white"/>
<path d="M46.4295 37.6281L45.6005 35.0767L44.7715 37.6281H42.0889L44.2592 39.2049L43.4302 41.7562L45.6005 40.1794L47.7708 41.7562L46.9418 39.2049L49.1121 37.6281H46.4295Z" fill="white"/>
<path d="M45.6005 47.9998L46.4295 50.5511H49.1121L46.9418 52.1279L47.7708 54.6793L45.6005 53.1025L43.4302 54.6793L44.2592 52.1279L42.0889 50.5511H44.7715L45.6005 47.9998Z" fill="white"/>
<path d="M54.0295 5.32036L53.2005 2.76904L52.3715 5.32036H49.6889L51.8592 6.89717L51.0302 9.44849L53.2005 7.87169L55.3708 9.44849L54.5418 6.89717L56.7121 5.32036H54.0295Z" fill="white"/>
<path d="M53.2005 15.6921L54.0295 18.2434H56.7121L54.5418 19.8202L55.3708 22.3716L53.2005 20.7948L51.0302 22.3716L51.8592 19.8202L49.6889 18.2434H52.3715L53.2005 15.6921Z" fill="white"/>
<path d="M54.0295 31.1665L53.2005 28.6152L52.3715 31.1665H49.6889L51.8592 32.7433L51.0302 35.2946L53.2005 33.7178L55.3708 35.2946L54.5418 32.7433L56.7121 31.1665H54.0295Z" fill="white"/>
<path d="M53.2005 41.5383L54.0295 44.0896H56.7121L54.5418 45.6664L55.3708 48.2177L53.2005 46.6409L51.0302 48.2177L51.8592 45.6664L49.6889 44.0896H52.3715L53.2005 41.5383Z" fill="white"/>
<path d="M54.0295 57.0127L53.2005 54.4614L52.3715 57.0127H49.6889L51.8592 58.5895L51.0302 61.1408L53.2005 59.564L55.3708 61.1408L54.5418 58.5895L56.7121 57.0127H54.0295Z" fill="white"/>
<path d="M60.8005 9.23058L61.6295 11.7819H64.3121L62.1418 13.3587L62.9708 15.91L60.8005 14.3332L58.6302 15.91L59.4592 13.3587L57.2889 11.7819H59.9715L60.8005 9.23058Z" fill="white"/>
<path d="M61.6295 24.705L60.8005 22.1537L59.9715 24.705H57.2889L59.4592 26.2818L58.6302 28.8331L60.8005 27.2563L62.9708 28.8331L62.1418 26.2818L64.3121 24.705H61.6295Z" fill="white"/>
<path d="M60.8005 35.0767L61.6295 37.6281H64.3121L62.1418 39.2049L62.9708 41.7562L60.8005 40.1794L58.6302 41.7562L59.4592 39.2049L57.2889 37.6281H59.9715L60.8005 35.0767Z" fill="white"/>
<path d="M61.6295 50.5511L60.8005 47.9998L59.9715 50.5511H57.2889L59.4592 52.1279L58.6302 54.6793L60.8005 53.1025L62.9708 54.6793L62.1418 52.1279L64.3121 50.5511H61.6295Z" fill="white"/>
<path d="M68.4004 2.76904L69.2294 5.32036H71.912L69.7417 6.89717L70.5707 9.44849L68.4004 7.87169L66.2301 9.44849L67.0591 6.89717L64.8888 5.32036H67.5714L68.4004 2.76904Z" fill="white"/>
<path d="M69.2294 18.2434L68.4004 15.6921L67.5714 18.2434H64.8888L67.0591 19.8202L66.2301 22.3716L68.4004 20.7948L70.5707 22.3716L69.7417 19.8202L71.912 18.2434H69.2294Z" fill="white"/>
<path d="M68.4004 28.6152L69.2294 31.1665H71.912L69.7417 32.7433L70.5707 35.2946L68.4004 33.7178L66.2301 35.2946L67.0591 32.7433L64.8888 31.1665H67.5714L68.4004 28.6152Z" fill="white"/>
<path d="M69.2294 44.0896L68.4004 41.5383L67.5714 44.0896H64.8888L67.0591 45.6664L66.2301 48.2177L68.4004 46.6409L70.5707 48.2177L69.7417 45.6664L71.912 44.0896H69.2294Z" fill="white"/>
<path d="M68.4004 54.4614L69.2294 57.0127H71.912L69.7417 58.5895L70.5707 61.1408L68.4004 59.564L66.2301 61.1408L67.0591 58.5895L64.8888 57.0127H67.5714L68.4004 54.4614Z" fill="white"/>
<path d="M76.8294 11.7819L76.0004 9.23058L75.1714 11.7819H72.4888L74.6591 13.3587L73.8301 15.91L76.0004 14.3332L78.1707 15.91L77.3417 13.3587L79.512 11.7819H76.8294Z" fill="white"/>
<path d="M76.0004 22.1537L76.8294 24.705H79.512L77.3417 26.2818L78.1707 28.8331L76.0004 27.2563L73.8301 28.8331L74.6591 26.2818L72.4888 24.705H75.1714L76.0004 22.1537Z" fill="white"/>
<path d="M76.8294 37.6281L76.0004 35.0767L75.1714 37.6281H72.4888L74.6591 39.2049L73.8301 41.7562L76.0004 40.1794L78.1707 41.7562L77.3417 39.2049L79.512 37.6281H76.8294Z" fill="white"/>
<path d="M76.0004 47.9998L76.8294 50.5511H79.512L77.3417 52.1279L78.1707 54.6793L76.0004 53.1025L73.8301 54.6793L74.6591 52.1279L72.4888 50.5511H75.1714L76.0004 47.9998Z" fill="white"/>
<path d="M84.4295 5.32036L83.6005 2.76904L82.7715 5.32036H80.0889L82.2592 6.89717L81.4302 9.44849L83.6005 7.87169L85.7708 9.44849L84.9418 6.89717L87.1121 5.32036H84.4295Z" fill="white"/>
<path d="M83.6005 15.6921L84.4295 18.2434H87.1121L84.9418 19.8202L85.7708 22.3716L83.6005 20.7948L81.4302 22.3716L82.2592 19.8202L80.0889 18.2434H82.7715L83.6005 15.6921Z" fill="white"/>
<path d="M84.4295 31.1665L83.6005 28.6152L82.7715 31.1665H80.0889L82.2592 32.7433L81.4302 35.2946L83.6005 33.7178L85.7708 35.2946L84.9418 32.7433L87.1121 31.1665H84.4295Z" fill="white"/>
<path d="M83.6005 41.5383L84.4295 44.0896H87.1121L84.9418 45.6664L85.7708 48.2177L83.6005 46.6409L81.4302 48.2177L82.2592 45.6664L80.0889 44.0896H82.7715L83.6005 41.5383Z" fill="white"/>
<path d="M84.4295 57.0127L83.6005 54.4614L82.7715 57.0127H80.0889L82.2592 58.5895L81.4302 61.1408L83.6005 59.564L85.7708 61.1408L84.9418 58.5895L87.1121 57.0127H84.4295Z" fill="white"/>
</g>
<defs>
<clipPath id="clip0_909_264532">
<rect width="228" height="120" fill="white"/>
</clipPath>
</defs>
</svg>
