<svg width="146" height="78" viewBox="0 0 146 78" fill="none" xmlns="http://www.w3.org/2000/svg">
<path d="M8.73604 76.3201C6.24004 76.3201 4.16003 75.4241 2.49603 73.6321C0.832034 71.8401 3.44515e-05 69.6641 3.44515e-05 67.1041V10.9441C3.44515e-05 8.44806 0.800035 6.27207 2.40003 4.41607C4.06403 2.56006 6.17603 1.63206 8.73604 1.63206H16.8C19.04 1.63206 20.992 2.17606 22.656 3.26406C24.32 4.28806 25.76 5.72806 26.976 7.58407L42.432 30.8161V10.9441C42.432 8.32006 43.264 6.11206 44.928 4.32006C46.592 2.52806 48.64 1.63206 51.072 1.63206H59.136C61.632 1.63206 63.712 2.56006 65.376 4.41607C67.04 6.27207 67.872 8.44806 67.872 10.9441V67.1041C67.872 69.6641 67.04 71.8401 65.376 73.6321C63.712 75.4241 61.632 76.3201 59.136 76.3201H50.88C48.384 76.3201 46.304 75.4241 44.64 73.6321C42.976 71.8401 42.144 69.6641 42.144 67.1041C42.144 66.7201 42.336 66.5281 42.72 66.5281C43.104 66.5281 43.296 66.7201 43.296 67.1041C43.296 69.4081 44 71.3281 45.408 72.8641C46.88 74.4001 48.704 75.1681 50.88 75.1681H59.136C61.248 75.1681 63.04 74.4001 64.512 72.8641C65.984 71.3281 66.72 69.4081 66.72 67.1041V10.9441C66.72 8.70407 65.984 6.78407 64.512 5.18406C63.04 3.58406 61.248 2.78407 59.136 2.78407H51.072C48.896 2.78407 47.104 3.58406 45.696 5.18406C44.288 6.78407 43.584 8.70407 43.584 10.9441V32.4481C43.584 32.7041 43.424 32.8961 43.104 33.0241C42.784 33.0881 42.56 32.9921 42.432 32.7361L26.016 8.16006C24.864 6.43206 23.552 5.12006 22.08 4.22406C20.608 3.26406 18.848 2.78407 16.8 2.78407H8.73604C6.56003 2.78407 4.73603 3.58406 3.26403 5.18406C1.85603 6.78407 1.15203 8.70407 1.15203 10.9441V67.1041C1.15203 69.4081 1.85603 71.3281 3.26403 72.8641C4.73603 74.4001 6.56003 75.1681 8.73604 75.1681H16.992C19.104 75.1681 20.896 74.4001 22.368 72.8641C23.84 71.3281 24.576 69.4081 24.576 67.1041V55.8721C24.576 55.4881 24.768 55.2961 25.152 55.2961C25.536 55.2961 25.728 55.4881 25.728 55.8721V67.1041C25.728 69.6641 24.896 71.8401 23.232 73.6321C21.568 75.4241 19.488 76.3201 16.992 76.3201H8.73604ZM138.827 73.4401C136.523 75.2321 134.091 76.3521 131.531 76.8001C129.035 77.3121 126.635 77.1841 124.331 76.4161C122.091 75.6481 120.139 74.2721 118.475 72.2881L109.739 61.8241L101.483 71.8081C99.6905 73.9841 97.5145 75.5201 94.9545 76.4161C92.4585 77.3761 89.8985 77.5681 87.2745 76.9921C84.6505 76.4801 82.2505 75.1681 80.0745 73.0561L79.7865 72.7681C76.7785 69.7601 75.0185 66.5281 74.5065 63.0721C74.0585 59.6161 75.2105 56.2881 77.9625 53.0881L89.8665 39.4561L77.9625 25.7281C76.1705 23.6161 75.0185 21.3441 74.5065 18.9121C74.0585 16.4161 74.2825 13.9521 75.1785 11.5201C76.0745 9.08806 77.6105 6.91206 79.7865 4.99207L80.6505 4.22406C82.7625 2.36806 85.0665 1.21606 87.5625 0.768063C90.0585 0.256065 92.4905 0.416065 94.8585 1.24806C97.2905 2.01606 99.3385 3.42406 101.003 5.47206L103.211 8.06407C103.467 8.32007 103.435 8.57607 103.115 8.83207C102.795 9.08806 102.539 9.08806 102.347 8.83207L100.139 6.24007C98.6025 4.38406 96.7465 3.07206 94.5705 2.30407C92.3945 1.53606 90.1545 1.37606 87.8505 1.82407C85.5465 2.20807 83.4025 3.29606 81.4185 5.08806L80.5545 5.85607C77.6105 8.48007 75.9465 11.5841 75.5625 15.1681C75.1785 18.6881 76.2665 21.9521 78.8265 24.9601L91.0185 38.9761C91.3385 39.2321 91.3385 39.5201 91.0185 39.8401L78.9225 53.7601C76.3625 56.7681 75.2745 59.8401 75.6585 62.9761C76.1065 66.1121 77.7385 69.0881 80.5545 71.9041L80.8425 72.1921C82.8905 74.1761 85.0985 75.4241 87.4665 75.9361C89.8985 76.3841 92.2665 76.1921 94.5705 75.3601C96.8745 74.4641 98.8585 73.0241 100.523 71.0401L109.355 60.4801C109.483 60.3521 109.643 60.2881 109.835 60.2881C110.027 60.2881 110.155 60.3521 110.219 60.4801L119.339 71.5201C120.875 73.3121 122.699 74.5601 124.811 75.2641C126.923 75.9681 129.131 76.0961 131.435 75.6481C133.803 75.2001 136.011 74.1761 138.059 72.5761L138.923 71.9041C142.059 69.4721 143.755 66.5921 144.011 63.2641C144.331 59.8721 143.179 56.6721 140.555 53.6641L128.555 39.7441C128.299 39.4881 128.299 39.2321 128.555 38.9761L140.075 24.3841C141.547 22.4641 142.475 20.3841 142.859 18.1441C143.243 15.9041 143.019 13.6961 142.187 11.5201C141.419 9.34406 140.011 7.45606 137.963 5.85607L137.003 5.08806C134.955 3.42407 132.747 2.36807 130.379 1.92006C128.011 1.47206 125.739 1.66406 123.563 2.49606C121.451 3.26406 119.627 4.64007 118.091 6.62407L107.819 19.7761C107.563 20.1601 107.275 20.2241 106.955 19.9681C106.635 19.7121 106.603 19.4561 106.859 19.2001L117.035 6.04806C118.763 3.80807 120.811 2.27207 123.179 1.44007C125.547 0.544065 128.011 0.352066 130.571 0.864067C133.131 1.31207 135.531 2.43206 137.771 4.22406L138.731 4.99207C140.971 6.78407 142.507 8.86407 143.339 11.2321C144.171 13.6001 144.363 16.0001 143.915 18.4321C143.531 20.8641 142.539 23.1041 140.939 25.1521L129.707 39.3601L141.515 52.9921C144.331 56.3201 145.547 59.8081 145.163 63.4561C144.843 67.0401 143.019 70.1441 139.691 72.7681L138.827 73.4401Z" fill="white"/>
</svg>
